<svg width="164" height="150" viewBox="0 0 164 150" fill="none" xmlns="http://www.w3.org/2000/svg">
<mask id="mask0_3048_2063" style="mask-type:luminance" maskUnits="userSpaceOnUse" x="0" y="0" width="150" height="150">
<path fill-rule="evenodd" clip-rule="evenodd" d="M0 0H149.464V149.464H0V0Z" fill="white"/>
</mask>
<g mask="url(#mask0_3048_2063)">
<path fill-rule="evenodd" clip-rule="evenodd" d="M74.7328 149.464C33.528 149.464 0 115.937 0 74.7327C0 33.5279 33.528 -0.00012207 74.7328 -0.00012207C89.0611 -0.00012207 103.001 4.08268 115.046 11.8142C117.411 13.3368 118.104 16.489 116.582 18.8601C115.054 21.2311 111.908 21.9164 109.537 20.3951C99.1424 13.7161 87.1041 10.1906 74.7328 10.1906C39.1459 10.1906 10.1908 39.1457 10.1908 74.7327C10.1908 110.318 39.1459 139.273 74.7328 139.273C110.318 139.273 139.274 110.318 139.274 74.7327C139.274 72.6053 139.171 70.4992 138.975 68.4279C138.704 65.6215 140.755 63.1349 143.554 62.8636C146.367 62.605 148.846 64.6438 149.118 67.4429C149.348 69.8413 149.464 72.2734 149.464 74.7327C149.464 115.937 115.937 149.464 74.7328 149.464Z" fill="#FF624C"/>
</g>
<path fill-rule="evenodd" clip-rule="evenodd" d="M83.2238 91.7166C81.92 91.7166 80.6152 91.2201 79.6235 90.2227L49.0512 59.6504C47.0611 57.6587 47.0611 54.4319 49.0512 52.4415C51.0416 50.451 54.2687 50.451 56.2592 52.4415L83.2311 79.4138L154.355 8.28861C156.346 6.29816 159.573 6.29816 161.564 8.28861C163.554 10.2791 163.554 13.5058 161.564 15.4963L86.8311 90.2287C85.8321 91.2201 84.5289 91.7166 83.2238 91.7166Z" fill="#FF624C"/>
</svg>
