<svg preserveAspectRatio="none" width="100%" height="100%" overflow="visible" style="display: block;" viewBox="0 0 317.142 368.32" fill="none" xmlns="http://www.w3.org/2000/svg">
<g id="success 1" clip-path="url(#clip0_3052_11104)">
<path id="Vector" d="M84.8811 112.233C82.6182 113.095 80.3075 113.826 77.9604 114.422C74.8601 115.177 73.1097 115.527 70.1173 114.366C70.0122 114.325 69.9119 114.285 69.8173 114.245C64.1454 111.834 59.297 107.825 55.8621 102.708C52.4272 97.5907 50.554 91.5852 50.4706 85.4226C50.4556 85.2112 50.4556 84.9889 50.4556 84.7721C50.4527 83.7276 50.5026 82.6837 50.6052 81.6443C50.7363 80.2284 50.9628 78.823 51.2831 77.4377L51.2532 77.4322C48.8305 74.9549 47.8983 71.5614 48.2074 68.1517C48.4191 65.8401 49.1528 63.6066 50.353 61.6197C51.5533 59.6328 53.1889 57.9442 55.1365 56.6812C58.1888 54.7621 61.6305 53.5473 65.2112 53.1251C66.1726 53.0142 67.1396 52.9581 68.1074 52.9571H77.2C79.078 52.5174 80.9857 52.2166 82.9079 52.0572H82.9228C101.223 50.5393 115.654 62.6712 114.308 77.4322C114.298 77.4485 114.283 77.4647 114.273 77.481C113.885 78.1153 113.541 78.717 113.236 79.2916C112.942 79.8282 112.693 80.3432 112.479 80.8311C110.809 84.604 118.745 143.141 115.898 144.03C114.278 144.534 107.748 100.975 108.919 109.258C110.395 119.65 93.3117 109.117 84.8811 112.233Z" fill="var(--fill-0, #2F2E41)"/>
<path id="Vector_2" d="M112.449 218.051L137.816 272.093L40.2341 262.21L60.6038 210.33L112.449 218.051Z" fill="var(--fill-0, #FFB6B6)"/>
<path id="Vector_3" d="M163.372 326.403C146.403 332.051 128.52 334.447 110.663 333.463L102.898 320.87C102.898 320.87 102.573 325.56 102.088 332.73C93.5872 331.745 85.1975 329.966 77.0285 327.417C61.5367 322.573 47.0148 315.067 32.2946 308.145C29.313 290.371 28.1943 262.964 44.6781 247.009L133.402 263.267C133.402 263.267 147.637 273.915 143.829 277.729C140.021 281.537 139.431 280.947 141.933 283.449C144.435 285.951 149.842 289.297 149.897 291.484C149.919 292.339 155.987 307.83 163.372 326.403Z" fill="var(--fill-0, #2F2E41)"/>
<path id="Vector_4" d="M96.9555 113.621L75.5201 115.117L61.6656 128.505L56.8134 129.371C52.452 130.148 48.5275 132.499 45.7841 135.978C43.0408 139.457 41.6694 143.821 41.93 148.244C42.928 165.153 45.1627 190.419 49.8334 198.617C57.0757 211.327 63.0576 207.339 57.0757 211.327C51.0937 215.315 47.0776 212.181 49.8334 218.484C52.5892 224.787 46.1087 232.871 46.1087 232.871L43.5289 235.45L46.2651 236.572L133.449 247.916C133.449 247.916 125.911 214.022 130.625 205.695C135.34 197.369 146.771 172.2 136.569 162.352L126.594 127.25L109.436 122.189L96.9555 113.621Z" fill="var(--fill-0, #FF624C)"/>
<path id="Vector_5" d="M226.714 252.735C225.28 252.689 223.872 252.333 222.589 251.69C221.306 251.047 220.178 250.133 219.282 249.011C218.387 247.889 217.746 246.586 217.404 245.192C217.062 243.798 217.027 242.347 217.301 240.938L176.405 213.241L181.284 200.046L229.617 233.297C231.954 233.935 233.976 235.407 235.3 237.436C236.624 239.465 237.157 241.909 236.799 244.305C236.442 246.701 235.217 248.883 233.358 250.436C231.5 251.99 229.136 252.808 226.714 252.735Z" fill="var(--fill-0, #FFB6B6)"/>
<path id="Vector_6" d="M111.202 125.592L105.26 127.945L136.961 189.859L202.587 234.592L212.047 218.604L162.091 175.454L142.092 137.098C139.277 131.7 134.562 127.536 128.857 125.411C123.152 123.286 116.862 123.351 111.202 125.592Z" fill="var(--fill-0, #FF624C)"/>
<path id="Vector_7" d="M85.1224 108.176C97.0099 108.176 106.647 98.5395 106.647 86.652C106.647 74.7645 97.0099 65.1278 85.1224 65.1278C73.2349 65.1278 63.5982 74.7645 63.5982 86.652C63.5982 98.5395 73.2349 108.176 85.1224 108.176Z" fill="var(--fill-0, #FFB6B6)"/>
<path id="Vector_8" d="M103.84 77.55C103.481 77.7394 103.127 77.9139 102.768 78.0884C102.394 78.2678 102.02 78.4473 101.641 78.6168C94.4381 81.8819 88.5708 82.2459 85.0115 77.55C84.9141 75.0795 84.358 72.6487 83.3715 70.3816C83.5458 72.9151 82.8781 75.4352 81.4722 77.55H74.3038C66.921 82.4502 63.1324 86.9517 68.257 103.038C68.591 104.095 70.8791 141.642 71.5321 144.528C60.3558 140.241 50.7148 94.7233 50.4706 82.7294C50.4556 82.535 50.4556 82.3306 50.4556 82.1312C50.4527 81.1704 50.5026 80.2102 50.6052 79.2549C50.7367 77.9506 50.9633 76.6577 51.2831 75.3865L51.2532 75.3815C50.1161 74.2944 49.2486 72.9567 48.7198 71.475C48.191 69.9934 48.0155 68.4087 48.2074 66.8472C50.0823 64.3924 52.4024 62.3123 55.0468 60.7157C57.4513 59.5514 59.9576 58.6102 62.5342 57.9042C62.599 57.8892 62.6539 57.8743 62.7187 57.8593C63.5063 57.6449 64.3139 57.4506 65.1214 57.281C66.7857 56.9321 68.4683 56.6774 70.1612 56.5184C70.2859 56.5134 70.4055 56.5034 70.5152 56.5034C71.1924 56.5038 71.857 56.6863 72.4394 57.0318C72.4444 57.0318 72.4444 57.0368 72.4543 57.0368C73.014 57.3712 73.4781 57.844 73.802 58.4098C74.1259 58.9755 74.2987 59.6151 74.3038 60.267H82.2897C82.5838 60.267 82.8779 60.277 83.1721 60.292C94.2935 60.7356 103.232 65.4913 103.805 76.4234C103.83 76.8023 103.84 77.1712 103.84 77.55Z" fill="var(--fill-0, #2F2E41)"/>
<path id="Vector_9" d="M56.6254 78.4153C64.457 78.4153 70.8057 72.0666 70.8057 64.2351C70.8057 56.4035 64.457 50.0548 56.6254 50.0548C48.7939 50.0548 42.4452 56.4035 42.4452 64.2351C42.4452 72.0666 48.7939 78.4153 56.6254 78.4153Z" fill="var(--fill-0, #2F2E41)"/>
<path id="Vector_10" d="M76.0934 57.6762C74.4824 65.3403 66.5343 69.9241 58.9305 68.049C55.2791 67.1486 52.1348 64.8345 50.1896 61.6158C48.2443 58.3972 47.6573 54.5376 48.5577 50.8861C50.4328 43.2823 59.6609 45.4744 65.7206 40.5133C74.293 33.4951 78.266 47.3406 76.0934 57.6762Z" fill="var(--fill-0, #2F2E41)"/>
<path id="Vector_11" d="M44.5869 271.014C56.6725 221.729 80.6189 179.368 120.277 146.179C121.812 143.654 124.286 141.841 127.156 141.138C130.026 140.434 133.057 140.898 135.586 142.427L229.864 199.59C232.389 201.125 234.202 203.599 234.905 206.469C235.609 209.338 235.145 212.37 233.616 214.898C218.479 265.47 195.807 309.353 157.925 339.734C156.391 342.259 153.917 344.072 151.047 344.775C148.177 345.478 145.146 345.015 142.617 343.485L48.3388 286.322C45.8139 284.788 44.0009 282.314 43.2975 279.444C42.5941 276.574 43.0579 273.542 44.5869 271.014Z" fill="var(--fill-0, #F2F2F2)"/>
<path id="Vector_12" opacity="0.2" d="M61.344 287.624C58.8191 286.089 57.0061 283.615 56.3028 280.745C55.5994 277.875 56.0632 274.844 57.5923 272.315C69.6778 223.03 93.6243 180.669 133.283 147.48C134.299 145.827 135.733 144.472 137.441 143.552L135.586 142.427C133.057 140.898 130.026 140.434 127.156 141.137C124.286 141.841 121.812 143.654 120.277 146.178C80.619 179.368 56.6726 221.729 44.5871 271.014C43.058 273.542 42.5942 276.574 43.2976 279.444C44.0009 282.314 45.8139 284.787 48.3389 286.322L142.617 343.485C144.295 344.495 146.21 345.043 148.168 345.074C150.126 345.105 152.058 344.618 153.767 343.662L61.344 287.624Z" fill="var(--fill-0, black)"/>
<path id="Vector_13" d="M171.908 260.088L108.624 221.957C107.619 221.35 106.896 220.368 106.614 219.228C106.332 218.087 106.514 216.881 107.12 215.875C107.726 214.869 108.707 214.145 109.847 213.861C110.987 213.578 112.193 213.758 113.2 214.363L176.484 252.494C177.487 253.103 178.208 254.084 178.488 255.223C178.769 256.363 178.586 257.567 177.981 258.572C177.375 259.576 176.396 260.3 175.258 260.585C174.12 260.869 172.915 260.69 171.908 260.088Z" fill="var(--fill-0, white)"/>
<path id="Vector_14" d="M135.094 209.523L121.171 201.134C120.162 200.53 119.434 199.551 119.148 198.41C118.861 197.27 119.039 196.063 119.643 195.054C120.247 194.045 121.226 193.317 122.366 193.03C123.507 192.744 124.714 192.922 125.723 193.525L125.747 193.54L139.669 201.929C140.673 202.537 141.394 203.519 141.674 204.658C141.955 205.798 141.773 207.002 141.167 208.007C140.562 209.012 139.582 209.736 138.444 210.02C137.305 210.304 136.101 210.125 135.094 209.523Z" fill="var(--fill-0, white)"/>
<path id="Vector_15" d="M161.85 276.781L98.5664 238.65C97.5598 238.044 96.8351 237.063 96.5514 235.923C96.2678 234.782 96.4484 233.576 97.0536 232.569C97.6588 231.562 98.639 230.836 99.779 230.552C100.919 230.267 102.125 230.446 103.133 231.05L103.142 231.056L166.426 269.187C167.429 269.796 168.15 270.777 168.43 271.916C168.711 273.055 168.528 274.259 167.923 275.264C167.317 276.269 166.338 276.993 165.2 277.277C164.062 277.562 162.857 277.383 161.85 276.781Z" fill="var(--fill-0, white)"/>
<path id="Vector_16" d="M179.945 188.191C190.153 188.191 198.429 179.916 198.429 169.707C198.429 159.499 190.153 151.223 179.945 151.223C169.737 151.223 161.461 159.499 161.461 169.707C161.461 179.916 169.737 188.191 179.945 188.191Z" fill="var(--fill-0, #3F3D56)"/>
<path id="Vector_17" d="M148.083 367.769C169.902 367.769 187.59 350.081 187.59 328.262C187.59 306.443 169.902 288.755 148.083 288.755C126.265 288.755 108.577 306.443 108.577 328.262C108.577 350.081 126.265 367.769 148.083 367.769Z" fill="var(--fill-0, white)"/>
<path id="Vector_18" d="M148.083 368.32C140.161 368.32 132.416 365.971 125.829 361.569C119.241 357.167 114.107 350.911 111.075 343.592C108.043 336.272 107.25 328.218 108.795 320.447C110.341 312.677 114.156 305.539 119.758 299.937C125.36 294.335 132.498 290.52 140.268 288.974C148.039 287.429 156.093 288.222 163.413 291.254C170.732 294.285 176.988 299.42 181.39 306.007C185.792 312.595 188.141 320.339 188.141 328.262C188.129 338.882 183.905 349.064 176.395 356.574C168.886 364.084 158.704 368.308 148.083 368.32ZM148.083 289.307C140.379 289.307 132.847 291.591 126.441 295.872C120.035 300.152 115.042 306.236 112.093 313.355C109.145 320.473 108.373 328.306 109.876 335.862C111.38 343.419 115.09 350.36 120.538 355.808C125.986 361.256 132.927 364.966 140.484 366.469C148.04 367.972 155.873 367.201 162.991 364.252C170.109 361.304 176.193 356.311 180.474 349.905C184.754 343.498 187.039 335.967 187.039 328.262C187.027 317.934 182.919 308.032 175.616 300.729C168.313 293.426 158.411 289.318 148.083 289.307Z" fill="var(--fill-0, #3F3D56)"/>
<path id="Vector_19" d="M142.694 348.823C142.012 348.823 141.339 348.665 140.729 348.359C140.118 348.054 139.588 347.611 139.179 347.065L128.401 332.694C128.054 332.233 127.801 331.707 127.658 331.148C127.514 330.589 127.482 330.007 127.563 329.435C127.645 328.863 127.838 328.313 128.132 327.816C128.426 327.32 128.815 326.886 129.277 326.539C129.739 326.193 130.265 325.941 130.824 325.797C131.384 325.654 131.966 325.623 132.537 325.705C133.109 325.787 133.659 325.98 134.155 326.275C134.652 326.569 135.086 326.959 135.432 327.421L142.483 336.822L160.594 309.657C160.914 309.177 161.325 308.764 161.805 308.443C162.284 308.122 162.823 307.899 163.388 307.785C163.954 307.672 164.537 307.672 165.103 307.784C165.669 307.896 166.208 308.118 166.688 308.438C167.168 308.758 167.581 309.17 167.902 309.649C168.223 310.129 168.446 310.667 168.56 311.233C168.673 311.799 168.673 312.381 168.561 312.948C168.449 313.514 168.227 314.052 167.907 314.532L146.351 346.866C145.961 347.451 145.436 347.934 144.821 348.274C144.206 348.614 143.519 348.802 142.816 348.822C142.775 348.823 142.735 348.823 142.694 348.823Z" fill="var(--fill-0, #FF624C)"/>
<path id="Vector_20" d="M275.671 128.06C277.241 127.926 278.438 126.932 278.344 125.84C278.251 124.748 276.903 123.971 275.333 124.106C273.763 124.24 272.566 125.234 272.659 126.326C272.753 127.418 274.101 128.195 275.671 128.06Z" fill="var(--fill-0, white)"/>
<path id="Vector_21" d="M293.334 122.068C294.904 121.934 296.101 120.94 296.008 119.848C295.914 118.756 294.566 117.979 292.996 118.114C291.426 118.248 290.229 119.242 290.323 120.334C290.416 121.426 291.764 122.203 293.334 122.068Z" fill="var(--fill-0, #3F3D56)"/>
<path id="Vector_22" d="M267.298 114.584C268.868 114.45 270.065 113.456 269.971 112.364C269.878 111.272 268.53 110.495 266.96 110.629C265.39 110.764 264.193 111.758 264.286 112.85C264.38 113.942 265.728 114.718 267.298 114.584Z" fill="var(--fill-0, #FF6584)"/>
<path id="Vector_23" d="M259.889 110.242C260.564 110.089 260.934 109.178 260.715 108.207C260.495 107.235 259.77 106.572 259.094 106.724C258.418 106.877 258.048 107.788 258.268 108.76C258.487 109.731 259.213 110.395 259.889 110.242Z" fill="var(--fill-0, #E6E6E6)"/>
<path id="Vector_24" d="M254.614 99.7C255.289 99.5473 255.659 98.6361 255.44 97.6648C255.22 96.6935 254.494 96.0299 253.819 96.1826C253.143 96.3352 252.773 97.2464 252.993 98.2177C253.212 99.189 253.938 99.8526 254.614 99.7Z" fill="var(--fill-0, #3F3D56)"/>
<path id="Vector_25" d="M279.923 114.504C280.599 114.352 280.968 113.441 280.749 112.469C280.53 111.498 279.804 110.834 279.128 110.987C278.452 111.14 278.083 112.051 278.302 113.022C278.522 113.993 279.247 114.657 279.923 114.504Z" fill="var(--fill-0, #E6E6E6)"/>
<path id="Vector_26" d="M272.208 120.909C272.884 120.756 273.253 119.845 273.034 118.874C272.815 117.903 272.089 117.239 271.413 117.392C270.738 117.544 270.368 118.456 270.587 119.427C270.807 120.398 271.532 121.062 272.208 120.909Z" fill="var(--fill-0, #FF6584)"/>
<path id="Vector_27" d="M286.253 126.126C286.929 125.973 287.299 125.062 287.079 124.091C286.86 123.119 286.134 122.456 285.458 122.608C284.783 122.761 284.413 123.672 284.632 124.643C284.852 125.615 285.577 126.278 286.253 126.126Z" fill="var(--fill-0, #3F3D56)"/>
<path id="Vector_28" d="M202.744 46.4C203.013 45.3375 201.994 44.1624 200.466 43.7753C198.939 43.3883 197.482 43.9358 197.213 44.9983C196.944 46.0608 197.964 47.2359 199.491 47.623C201.018 48.01 202.475 47.4625 202.744 46.4Z" fill="var(--fill-0, white)"/>
<path id="Vector_29" d="M184.092 46.2797C184.362 45.2172 183.342 44.0421 181.815 43.6551C180.287 43.268 178.831 43.8155 178.562 44.878C178.292 45.9405 179.312 47.1157 180.839 47.5027C182.367 47.8898 183.823 47.3422 184.092 46.2797Z" fill="var(--fill-0, #3F3D56)"/>
<path id="Vector_30" d="M206.244 61.8744C206.514 60.8119 205.494 59.6368 203.966 59.2498C202.439 58.8627 200.983 59.4102 200.713 60.4727C200.444 61.5352 201.464 62.7103 202.991 63.0974C204.519 63.4845 205.975 62.9369 206.244 61.8744Z" fill="var(--fill-0, #FF6584)"/>
<path id="Vector_31" d="M210.592 67.7094C210.703 66.7198 210.234 65.8552 209.546 65.7783C208.857 65.7014 208.21 66.4412 208.099 67.4309C207.989 68.4205 208.457 69.2851 209.145 69.362C209.834 69.439 210.482 68.6991 210.592 67.7094Z" fill="var(--fill-0, #E6E6E6)"/>
<path id="Vector_32" d="M212.126 79.3974C212.236 78.4077 211.768 77.5431 211.08 77.4662C210.391 77.3893 209.743 78.1292 209.633 79.1188C209.522 80.1084 209.991 80.973 210.679 81.05C211.368 81.1269 212.015 80.387 212.126 79.3974Z" fill="var(--fill-0, #3F3D56)"/>
<path id="Vector_33" d="M193.057 57.1236C193.168 56.1339 192.699 55.2693 192.011 55.1924C191.322 55.1155 190.675 55.8554 190.564 56.845C190.454 57.8346 190.922 58.6992 191.61 58.7762C192.299 58.8531 192.947 58.1132 193.057 57.1236Z" fill="var(--fill-0, #E6E6E6)"/>
<path id="Vector_34" d="M202.444 53.5973C202.554 52.6077 202.086 51.7431 201.397 51.6661C200.709 51.5892 200.061 52.3291 199.951 53.3187C199.84 54.3084 200.308 55.173 200.997 55.2499C201.685 55.3268 202.333 54.5869 202.444 53.5973Z" fill="var(--fill-0, #FF6584)"/>
<path id="Vector_35" d="M190.88 44.0704C190.991 43.0808 190.522 42.2162 189.834 42.1393C189.145 42.0624 188.497 42.8022 188.387 43.7919C188.276 44.7815 188.745 45.6461 189.433 45.723C190.122 45.8 190.769 45.0601 190.88 44.0704Z" fill="var(--fill-0, #3F3D56)"/>
<path id="Vector_36" d="M50.4655 271.536C49.0568 270.959 47.7904 270.083 46.7537 268.968C45.717 267.853 44.9348 266.526 44.4612 265.079C43.9877 263.633 43.8341 262.1 44.011 260.588C44.188 259.076 44.6913 257.621 45.4861 256.322L15.1167 213.632L24.8594 202.329L60.5588 253.296C62.6449 254.797 64.108 257.01 64.6711 259.517C65.2341 262.024 64.8579 264.651 63.6138 266.899C62.3697 269.148 60.3441 270.861 57.9207 271.716C55.4974 272.571 52.8448 272.507 50.4655 271.536Z" fill="var(--fill-0, #FFB6B6)"/>
<path id="Vector_37" d="M51.1633 136.253C49.6269 135.349 47.8186 135.022 46.063 135.331C44.3073 135.641 42.7193 136.565 41.584 137.94L0.551048 195.326L38.5779 249.336L53.458 233.353L30.3112 196.98L61.0735 167.691C63.6014 162.153 63.9876 155.874 62.1573 150.068C60.327 144.262 56.4102 139.34 51.1633 136.253Z" fill="var(--fill-0, #FF624C)"/>
</g>
<defs>
<clipPath id="clip0_3052_11104">
<rect width="317.142" height="368.32" fill="white"/>
</clipPath>
</defs>
</svg>
