<svg width="30" height="30" viewBox="0 0 30 30" fill="none" xmlns="http://www.w3.org/2000/svg">
<rect width="30" height="30" rx="10" fill="#F5F5F5"/>
<g clip-path="url(#clip0_1890_11312)">
<path fill-rule="evenodd" clip-rule="evenodd" d="M13.1664 8C13.5178 8 13.8027 8.28491 13.8027 8.63636L13.8027 13.7273C13.8027 14.0787 13.5178 14.3636 13.1664 14.3636C12.8149 14.3636 12.53 14.0787 12.53 13.7273L12.53 8.63636C12.53 8.28491 12.8149 8 13.1664 8Z" fill="black"/>
<path d="M13.3784 11.8178H9.77295C9.42161 11.8178 9.13642 11.5333 9.13623 11.182C9.13623 10.8306 9.4215 10.5453 9.77295 10.5453H13.3784V11.8178ZM21.2271 10.5453C21.5785 10.5453 21.8638 10.8306 21.8638 11.182C21.8636 11.5333 21.5784 11.8178 21.2271 11.8178H15.0757V10.5453H21.2271Z" fill="black"/>
<path fill-rule="evenodd" clip-rule="evenodd" d="M17.8331 22.0001C17.4817 22.0001 17.1968 21.7152 17.1968 21.3637L17.1968 16.2728C17.1968 15.9214 17.4817 15.6365 17.8331 15.6365C18.1846 15.6365 18.4695 15.9214 18.4695 16.2728L18.4695 21.3637C18.4695 21.7152 18.1846 22.0001 17.8331 22.0001Z" fill="black"/>
<path d="M17.6211 18.1823L21.2266 18.1823C21.5779 18.1823 21.8631 18.4668 21.8633 18.8181C21.8633 19.1695 21.578 19.4548 21.2266 19.4548L17.6211 19.4548L17.6211 18.1823ZM9.77246 19.4548C9.42101 19.4548 9.13574 19.1695 9.13574 18.8181C9.13593 18.4668 9.42113 18.1823 9.77246 18.1823L15.9238 18.1823L15.9238 19.4548L9.77246 19.4548Z" fill="black"/>
</g>
<defs>
<clipPath id="clip0_1890_11312">
<rect width="12" height="14" fill="white" transform="translate(9 8)"/>
</clipPath>
</defs>
</svg>
