<svg width="20" height="20" viewBox="0 0 20 20" fill="none" xmlns="http://www.w3.org/2000/svg">
<path d="M2.6416 6.19998L9.99992 10.4583L17.3082 6.22496" stroke="#161616" stroke-width="1.5" stroke-linecap="round" stroke-linejoin="round"/>
<path d="M10 18.0083V10.45" stroke="#161616" stroke-width="1.5" stroke-linecap="round" stroke-linejoin="round"/>
<path d="M8.27453 2.06666L3.82453 4.54168C2.8162 5.10002 1.99121 6.5 1.99121 7.65V12.3584C1.99121 13.5084 2.8162 14.9083 3.82453 15.4667L8.27453 17.9417C9.22453 18.4667 10.7829 18.4667 11.7329 17.9417L16.1829 15.4667C17.1912 14.9083 18.0162 13.5084 18.0162 12.3584V7.65C18.0162 6.5 17.1912 5.10002 16.1829 4.54168L11.7329 2.06666C10.7745 1.53332 9.22453 1.53332 8.27453 2.06666Z" stroke="#161616" stroke-width="1.5" stroke-linecap="round" stroke-linejoin="round"/>
<path d="M14.1671 11.0333V7.98336L6.25879 3.41666" stroke="#161616" stroke-width="1.5" stroke-linecap="round" stroke-linejoin="round"/>
</svg>
